<svg xmlns="http://www.w3.org/2000/svg" viewBox="0 0 113.85 21.97"><defs><style>.cls-1{fill:#5ce1e6;}.cls-2{fill:#fff;}</style></defs><g id="Layer_2" data-name="Layer 2"><g id="Layer_2-2" data-name="Layer 2"><path class="cls-1" d="M67.48,17.92V5h6.28a5.91,5.91,0,0,1,3.31.84A2.89,2.89,0,0,1,78.33,8.4a3,3,0,0,1-1.71,2.76,3.13,3.13,0,0,1,2.09,3.15A3.06,3.06,0,0,1,77.38,17a6,6,0,0,1-3.43.89ZM71,10h2.56c.88,0,1.33-.33,1.33-1s-.45-1-1.33-1H71Zm0,5H73.8a1.8,1.8,0,0,0,1-.28,1,1,0,0,0,0-1.62,1.8,1.8,0,0,0-1-.28H71Z"/><path class="cls-1" d="M84.24,18.15a4.3,4.3,0,0,1-3.46-1.54,5.72,5.72,0,0,1-1.3-3.83A5.73,5.73,0,0,1,80.78,9a4.33,4.33,0,0,1,3.46-1.54,3.32,3.32,0,0,1,3,1.28v-1h3.43V17.92H87.19v-1A3.32,3.32,0,0,1,84.24,18.15Zm-.73-3.73a2.26,2.26,0,0,0,3.17,0,2.32,2.32,0,0,0,.6-1.64,2.34,2.34,0,0,0-.6-1.64,2.28,2.28,0,0,0-3.17,0,2.34,2.34,0,0,0-.61,1.64A2.33,2.33,0,0,0,83.51,14.42Z"/><path class="cls-1" d="M92.14,17.92V7.64h3.43V8.78a2.85,2.85,0,0,1,1.18-1,3.63,3.63,0,0,1,1.67-.39,3.58,3.58,0,0,1,2.53.93,3.14,3.14,0,0,1,1,2.41v7.23H98.52v-6c0-1-.48-1.53-1.43-1.53a1.5,1.5,0,0,0-1.12.41,1.52,1.52,0,0,0-.4,1.12v6Z"/><path class="cls-1" d="M109.85,12.78l4,5v.19h-4.09l-3-4.15v4.15h-3.42V4.5h3.42v7.35l3-4.21h3.9v.19Z"/><path class="cls-2" d="M30.38,17.48V4.5h2.68V9.71H38.7V6.31A1.81,1.81,0,0,1,40.51,4.5h.87v13H38.7V12.07H34.87a1.81,1.81,0,0,0-1.81,1.81v3.6Z"/><path class="cls-2" d="M55.17,20.45v-.16l2.24-4.44L53.29,7.43V7.3h2.84l2.68,5.92,2.25-4.87a1.82,1.82,0,0,1,1.65-1h1.66v.13L58,20.45Z"/><path class="cls-1" d="M45.88,13.91a3.32,3.32,0,0,1-.35-1.53,3.16,3.16,0,0,1,.77-2.16,2.52,2.52,0,0,1,2-.87,2.71,2.71,0,0,1,.77.1A1.8,1.8,0,0,0,50.81,9l.86-.86A5.23,5.23,0,0,0,48.29,7a5.16,5.16,0,0,0-3.83,1.49A5.25,5.25,0,0,0,43,12.38,5.38,5.38,0,0,0,44,15.75Z"/><path class="cls-2" d="M52.55,9,50.7,10.86a3.27,3.27,0,0,1,.35,1.52,3.16,3.16,0,0,1-.76,2.17,2.52,2.52,0,0,1-2,.88,3.2,3.2,0,0,1-.78-.1,1.79,1.79,0,0,0-1.74.47l-.86.85a5.25,5.25,0,0,0,3.38,1.09,5.12,5.12,0,0,0,3.83-1.49,5.26,5.26,0,0,0,1.48-3.87A5.37,5.37,0,0,0,52.55,9Z"/><path class="cls-1" d="M5.93,14.11A7,7,0,0,1,5.23,11,6.43,6.43,0,0,1,6.8,6.55a5.17,5.17,0,0,1,4.09-1.79,6.3,6.3,0,0,1,1.59.2,3.67,3.67,0,0,0,3.57-1l1.76-1.76A10.75,10.75,0,0,0,10.89,0,10.53,10.53,0,0,0,3,3.07,10.74,10.74,0,0,0,0,11a11.09,11.09,0,0,0,2.16,6.92Z"/><path class="cls-2" d="M19.62,4.08,15.84,7.86A6.85,6.85,0,0,1,16.55,11,6.58,6.58,0,0,1,15,15.43a5.2,5.2,0,0,1-4.11,1.79A6,6,0,0,1,9.28,17a3.68,3.68,0,0,0-3.55,1L4,19.74A10.79,10.79,0,0,0,10.89,22a10.58,10.58,0,0,0,7.86-3.06,10.82,10.82,0,0,0,3-7.94A11,11,0,0,0,19.62,4.08Z"/><path class="cls-1" d="M10.84,7.28A3.71,3.71,0,0,0,7.73,13l5.13-5.13A3.74,3.74,0,0,0,10.84,7.28Z"/><path class="cls-2" d="M8.83,14.1a3.65,3.65,0,0,0,2,.6A3.71,3.71,0,0,0,14,9Z"/></g></g></svg>